# Blender 4.1.1
# www.blender.org
mtllib fairy.mtl
o 妖精
v 0.500000 -0.500000 -0.500000
v 0.500000 0.500000 -0.500000
v 0.500000 -0.500000 0.500000
v 0.500000 0.500000 0.500000
v -0.500000 -0.500000 -0.500000
v -0.500000 0.500000 -0.500000
v -0.500000 -0.500000 0.500000
v -0.500000 0.500000 0.500000
v 0.609568 -0.609568 -0.000000
v 0.609568 0.000000 -0.609568
v 0.609568 0.609568 -0.000000
v 0.609568 -0.000000 0.609568
v 0.000000 -0.609568 0.609568
v 0.000000 0.609568 0.609568
v -0.609568 -0.000000 0.609568
v -0.609568 -0.609568 0.000000
v -0.609568 0.609568 0.000000
v -0.609568 0.000000 -0.609568
v -0.000000 -0.609568 -0.609568
v -0.000000 0.609568 -0.609568
v 0.839506 0.000000 -0.000000
v 0.000000 -0.000000 0.839506
v -0.839506 0.000000 0.000000
v -0.000000 0.000000 -0.839506
v -0.000000 -0.839506 -0.000000
v 0.000000 1.264481 0.786071
vn 0.5774 -0.5774 -0.5774
vn 1.0000 -0.0000 -0.0000
vn 0.7071 -0.7071 -0.0000
vn 0.5678 0.5960 -0.5678
vn 0.7071 -0.0000 -0.7071
vn 0.5678 0.5960 0.5678
vn 0.7071 -0.0000 0.7071
vn 0.5774 -0.5774 0.5774
vn -0.0000 -0.0000 1.0000
vn -0.0000 -0.7071 0.7071
vn -0.5678 0.5960 0.5678
vn -0.7071 -0.0000 0.7071
vn -0.5774 -0.5774 0.5774
vn -1.0000 -0.0000 -0.0000
vn -0.7071 -0.7071 -0.0000
vn -0.5678 0.5960 -0.5678
vn -0.7071 -0.0000 -0.7071
vn -0.5774 -0.5774 -0.5774
vn -0.0000 -0.0000 -1.0000
vn -0.0000 -0.7071 -0.7071
vn -0.0000 -1.0000 -0.0000
vn -0.0000 0.2607 0.9654
vn -0.7613 0.6467 -0.0463
vn 0.7613 0.6467 -0.0463
vn -0.0000 0.7321 0.6812
vn -0.0000 0.7029 -0.7113
vt 0.628386 0.754595
vt 0.548763 0.806864
vt 0.563433 0.729832
vt 0.598399 0.888139
vt 0.625265 0.824038
vt 0.465923 0.853815
vt 0.480303 0.791514
vt 0.493915 0.728979
vt 0.413509 0.776581
vt 0.430017 0.701527
vt 0.332977 0.823487
vt 0.347477 0.761965
vt 0.360407 0.699522
vt 0.284765 0.748468
vt 0.298124 0.684797
vt 0.208270 0.799561
vt 0.220333 0.735438
vt 0.234752 0.672398
vt 0.150903 0.720973
vt 0.170094 0.643495
vt 0.070457 0.775468
vt 0.072693 0.704496
vt 0.099341 0.638772
vt 0.394660 0.565756
vt 0.312939 0.616192
vt 0.329810 0.538910
vt 0.389476 0.635742
vt 0.235007 0.602030
vt 0.259589 0.536186
vt 0.342595 0.884215
vt 0.272717 0.811019
vt 0.256252 0.962286
vt 0.299954 0.881583
vt 0.174260 0.868929
vt 0.529105 0.882754
vt 0.396511 0.851320
vt 0.137167 0.799822
vt 0.325630 0.943418
vt 0.183090 0.943858
s 1
usemtl マテリアル.003
f 1/1/1 21/2/2 9/3/3
f 2/4/4 21/2/2 10/5/5
f 21/2/2 4/6/6 12/7/7
f 21/2/2 3/8/8 9/3/3
f 3/8/8 22/9/9 13/10/10
f 4/6/6 22/9/9 12/7/7
f 22/9/9 8/11/11 15/12/12
f 22/9/9 7/13/13 13/10/10
f 7/13/13 23/14/14 16/15/15
f 8/11/11 23/14/14 15/12/12
f 23/14/14 6/16/16 18/17/17
f 23/14/14 5/18/18 16/15/15
f 5/18/18 24/19/19 19/20/20
f 6/16/16 24/19/19 18/17/17
f 24/19/19 2/21/4 10/22/5
f 24/19/19 1/23/1 19/20/20
f 3/24/8 25/25/21 9/26/3
f 7/13/13 25/25/21 13/27/10
f 25/25/21 5/18/18 19/28/20
f 25/25/21 1/29/1 9/26/3
f 14/30/22 17/31/23 8/11/11
f 14/30/22 11/32/24 26/33/25
f 11/32/24 20/34/26 26/33/25
f 17/31/23 20/34/26 6/16/16
f 1/1/1 10/5/5 21/2/2
f 2/4/4 11/35/24 21/2/2
f 21/2/2 11/35/24 4/6/6
f 21/2/2 12/7/7 3/8/8
f 3/8/8 12/7/7 22/9/9
f 4/6/6 14/36/22 22/9/9
f 22/9/9 14/36/22 8/11/11
f 22/9/9 15/12/12 7/13/13
f 7/13/13 15/12/12 23/14/14
f 8/11/11 17/31/23 23/14/14
f 23/14/14 17/31/23 6/16/16
f 23/14/14 18/17/17 5/18/18
f 5/18/18 18/17/17 24/19/19
f 6/16/16 20/37/26 24/19/19
f 24/19/19 20/37/26 2/21/4
f 24/19/19 10/22/5 1/23/1
f 3/24/8 13/27/10 25/25/21
f 7/13/13 16/15/15 25/25/21
f 25/25/21 16/15/15 5/18/18
f 25/25/21 19/28/20 1/29/1
f 14/30/22 26/33/25 17/31/23
f 14/30/22 4/38/6 11/32/24
f 11/32/24 2/39/4 20/34/26
f 17/31/23 26/33/25 20/34/26
o 羽
v 0.790687 0.322421 -0.648640
v 0.884725 0.763719 -0.702933
v 1.119132 0.388210 -0.838267
v 1.199641 0.722981 -0.884749
v 0.854614 0.322421 -0.537916
v 0.948652 0.763719 -0.592209
v 1.183058 0.388210 -0.727543
v 1.263568 0.722981 -0.774025
v 0.897358 0.264888 -0.726402
v 0.698696 0.500000 -0.611704
v 0.894580 0.596443 -0.724798
v 1.298501 0.670555 -0.958002
v 1.200957 0.318167 -0.811693
v 1.292263 0.793023 -0.864409
v 1.376436 0.670555 -0.823014
v 0.975293 0.264888 -0.591414
v 0.972515 0.596443 -0.589810
v 0.776631 0.500000 -0.476717
v 0.761992 0.252378 -0.558257
v 0.941136 0.833762 -0.661685
v 0.946333 0.500000 -0.788624
v 1.464767 0.793178 -0.964004
v 1.053667 0.500000 -0.602717
v 0.641752 0.500000 -0.488836
v 0.936326 0.161441 -0.658908
v 0.968696 0.687589 -0.677597
v -0.854614 0.322420 -0.537916
v -0.948652 0.763719 -0.592209
v -1.183058 0.388210 -0.727543
v -1.263568 0.722981 -0.774025
v -0.790687 0.322420 -0.648640
v -0.884725 0.763719 -0.702933
v -1.119132 0.388210 -0.838267
v -1.199641 0.722980 -0.884749
v -0.975293 0.264888 -0.591414
v -0.776631 0.500000 -0.476717
v -0.972515 0.596443 -0.589810
v -1.376436 0.670555 -0.823014
v -1.200957 0.318167 -0.811693
v -1.292263 0.793023 -0.864409
v -1.298501 0.670555 -0.958002
v -0.897358 0.264888 -0.726402
v -0.894580 0.596443 -0.724798
v -0.698696 0.500000 -0.611704
v -0.761992 0.252378 -0.558256
v -0.941136 0.833762 -0.661685
v -1.053667 0.500000 -0.602717
v -1.464767 0.793178 -0.964004
v -0.946333 0.500000 -0.788624
v -0.641752 0.500000 -0.488836
v -0.936326 0.161441 -0.658908
v -0.968696 0.687589 -0.677597
vn -0.6944 0.0214 -0.7192
vn -0.4931 -0.2663 -0.8282
vn -0.7091 -0.3133 -0.6317
vn -0.5093 0.2123 -0.8340
vn -0.4980 0.0111 -0.8671
vn -0.4724 0.4271 -0.7710
vn -0.3205 0.0663 -0.9449
vn -0.2554 -0.2893 -0.9225
vn 0.5619 -0.7609 -0.3244
vn -0.0775 0.9960 0.0447
vn 0.7446 0.5107 -0.4299
vn 0.6581 0.0663 0.7500
vn 0.6712 -0.2893 0.6824
vn 0.5019 0.0111 0.8649
vn 0.4708 -0.2663 0.8411
vn 0.4315 0.4270 0.7947
vn 0.4677 0.2123 0.8580
vn 0.2757 0.0214 0.9610
vn 0.1925 -0.3133 0.9299
vn -0.8617 0.1001 0.4975
vn -0.5868 -0.7355 0.3388
vn 0.5460 0.2984 0.7828
vn -0.4050 0.2984 -0.8642
vn 0.0175 -0.9998 -0.0101
vn 0.4534 0.8520 -0.2618
vn 0.2591 0.9542 -0.1496
vn -0.2478 -0.3027 0.9203
vn -0.5188 0.0502 0.8534
vn -0.3477 -0.3667 0.8629
vn -0.0703 0.5797 0.8118
vn 0.0431 0.0735 0.9964
vn -0.3234 0.5262 0.7865
vn -0.8110 0.0744 0.5803
vn -0.6524 -0.3431 0.6758
vn -0.4623 -0.6631 -0.5887
vn -0.1003 0.9922 -0.0738
vn -0.5243 0.0383 -0.8507
vn -0.0273 -0.1158 -0.9929
vn 0.2274 -0.3309 -0.9159
vn 0.4689 0.0311 -0.8827
vn 0.4037 -0.3834 -0.8307
vn 0.5016 0.5012 -0.7051
vn -0.1277 0.2792 -0.9517
vn 0.8624 0.1065 -0.4949
vn 0.6361 -0.3285 -0.6982
vn 0.4857 -0.5709 0.6619
vn -0.5136 0.6329 -0.5794
vn 0.5292 0.0117 0.8484
vn -0.0048 -0.9999 -0.0093
vn -0.4871 0.5706 -0.6612
vn -0.6009 0.4477 -0.6622
vn -0.4885 0.1749 -0.8549
vt 0.480705 0.098875
vt 0.395392 0.093846
vt 0.430738 0.071451
vt 0.464822 0.157950
vt 0.426258 0.148936
vt 0.425575 0.231956
vt 0.395855 0.220253
vt 0.358842 0.158548
vt 0.281886 0.200141
vt 0.392083 0.291813
vt 0.368426 0.272143
vt 0.322699 0.308498
vt 0.254854 0.283367
vt 0.260066 0.350968
vt 0.213383 0.332481
vt 0.339510 0.335280
vt 0.271817 0.388704
vt 0.223289 0.393739
vt 0.190910 0.361269
vt 0.176657 0.445843
vt 0.133227 0.409525
vt 0.280522 0.432100
vt 0.196432 0.549560
vt 0.129053 0.511374
vt 0.096927 0.474411
vt 0.125530 0.179907
vt 0.146669 0.285803
vt 0.072702 0.229150
vt 0.196162 0.224035
vt 0.117199 0.326609
vt 0.060864 0.267463
vt 0.362812 0.439171
vt 0.463072 0.402858
vt 0.408098 0.356519
vt 0.416084 0.501959
vt 0.345717 0.472312
vt 0.522600 0.054207
vt 0.639728 0.064409
vt 0.594669 0.085959
vt 0.608308 0.013353
vt 0.467117 0.008985
vt 0.819978 0.089801
vt 0.866045 0.112989
vt 0.754624 0.119527
vt 0.806066 0.148709
vt 0.907937 0.109808
vt 0.872446 0.117761
vt 0.878134 0.116178
vt 0.806085 0.186630
vt 0.828402 0.413857
vt 0.748415 0.514849
vt 0.903255 0.152443
vt 0.863607 0.598609
vt 0.773531 0.773947
vt 0.735211 0.692760
vt 0.738922 0.828156
vt 0.885458 0.611591
vt 0.786236 0.795788
vt 0.797530 0.802029
vt 0.741870 0.857048
vt 0.708561 0.274213
vt 0.704268 0.560513
vt 0.655052 0.610667
vt 0.776337 0.151980
vt 0.668546 0.844334
vt 0.636725 0.791631
vt 0.884547 0.556220
vt 0.840525 0.539872
vt 0.934961 0.228796
vt 0.926340 0.121570
vt 0.908701 0.639149
vt 0.874683 0.611713
vt 0.504034 0.180781
vt 0.254713 0.502190
vt 0.450254 0.482336
vt 0.608073 0.038916
vt 0.863177 0.711097
vt 0.887545 0.647376
s 1
usemtl マテリアル.003
f 36/40/27 35/41/28 27/42/29
f 36/40/27 37/43/30 47/44/31
f 47/44/31 30/45/32 38/46/33
f 47/44/31 29/47/34 35/41/28
f 38/46/33 39/48/35 29/47/34
f 38/46/33 40/49/36 48/50/37
f 40/49/36 41/51/38 48/50/37
f 39/48/35 41/51/38 33/52/39
f 33/52/39 49/53/40 42/54/41
f 34/55/42 49/53/40 41/51/38
f 43/56/43 44/57/44 49/53/40
f 42/54/41 44/57/44 31/58/45
f 31/58/45 50/59/46 45/60/47
f 32/61/48 50/59/46 44/57/44
f 50/59/46 28/62/49 36/63/27
f 50/59/46 27/64/29 45/60/47
f 29/65/34 51/66/50 35/67/28
f 33/52/39 51/66/50 39/68/35
f 51/66/50 31/58/45 45/69/47
f 51/66/50 27/70/29 35/67/28
f 34/55/42 52/71/51 43/56/43
f 30/72/32 52/71/51 40/73/36
f 52/71/51 28/74/49 46/75/52
f 52/71/51 32/61/48 43/56/43
f 53/76/53 73/77/54 61/78/55
f 54/79/56 73/77/54 62/80/57
f 73/77/54 56/81/58 64/82/59
f 73/77/54 55/83/60 61/78/55
f 64/82/59 65/84/61 55/83/60
f 64/82/59 66/85/62 74/86/63
f 66/85/62 67/87/64 74/86/63
f 65/84/61 67/87/64 59/88/65
f 59/88/65 75/89/66 68/90/67
f 60/91/68 75/89/66 67/87/64
f 75/89/66 58/92/69 70/93/70
f 75/89/66 57/94/71 68/90/67
f 70/93/70 71/95/72 57/94/71
f 70/93/70 72/96/73 76/97/74
f 72/96/73 62/98/57 76/97/74
f 71/95/72 62/98/57 53/99/53
f 55/100/60 77/101/75 61/102/55
f 65/103/61 68/90/67 77/101/75
f 77/101/75 57/94/71 71/104/72
f 61/102/55 71/104/72 53/105/53
f 60/91/68 78/106/76 69/107/77
f 56/108/58 78/106/76 66/109/62
f 63/110/78 72/111/73 78/106/76
f 78/106/76 58/92/69 69/107/77
f 36/40/27 47/44/31 35/41/28
f 36/40/27 28/112/49 37/43/30
f 47/44/31 37/43/30 30/45/32
f 47/44/31 38/46/33 29/47/34
f 38/46/33 48/50/37 39/48/35
f 38/46/33 30/45/32 40/49/36
f 40/49/36 34/55/42 41/51/38
f 39/48/35 48/50/37 41/51/38
f 33/52/39 41/51/38 49/53/40
f 34/55/42 43/56/43 49/53/40
f 43/56/43 32/61/48 44/57/44
f 42/54/41 49/53/40 44/57/44
f 31/58/45 44/57/44 50/59/46
f 32/61/48 46/113/52 50/59/46
f 50/59/46 46/113/52 28/62/49
f 50/59/46 36/63/27 27/64/29
f 29/65/34 39/68/35 51/66/50
f 33/52/39 42/54/41 51/66/50
f 51/66/50 42/54/41 31/58/45
f 51/66/50 45/69/47 27/70/29
f 34/55/42 40/73/36 52/71/51
f 30/72/32 37/114/30 52/71/51
f 52/71/51 37/114/30 28/74/49
f 52/71/51 46/75/52 32/61/48
f 53/76/53 62/80/57 73/77/54
f 54/79/56 63/115/78 73/77/54
f 73/77/54 63/115/78 56/81/58
f 73/77/54 64/82/59 55/83/60
f 64/82/59 74/86/63 65/84/61
f 64/82/59 56/81/58 66/85/62
f 66/85/62 60/91/68 67/87/64
f 65/84/61 74/86/63 67/87/64
f 59/88/65 67/87/64 75/89/66
f 60/91/68 69/107/77 75/89/66
f 75/89/66 69/107/77 58/92/69
f 75/89/66 70/93/70 57/94/71
f 70/93/70 76/97/74 71/95/72
f 70/93/70 58/92/69 72/96/73
f 72/96/73 54/116/56 62/98/57
f 71/95/72 76/97/74 62/98/57
f 55/100/60 65/103/61 77/101/75
f 65/103/61 59/88/65 68/90/67
f 77/101/75 68/90/67 57/94/71
f 61/102/55 77/101/75 71/104/72
f 60/91/68 66/109/62 78/106/76
f 56/108/58 63/110/78 78/106/76
f 63/110/78 54/117/56 72/111/73
f 78/106/76 72/111/73 58/92/69
